# xmcd
#
# Track frame offsets:
#      150
#      10512
#      22822
#      38722
#      51487
#      62914
#      74677
#      90975
#      101045
#      115280
#      129552
# 
# Disc length: 1892 seconds
#
# Revision: 6
# Processed by: cddbd v1.4PL0 Copyright (c) Steve Scherf et al.
#
# Submitted via: FreeRIP 1.20
#
DISCID=8f07620b
DTITLE=George Strait - Pure Country
DYEAR=1992
DGENRE=Country
TTITLE0=Heartland
TTITLE1=Baby Your Baby
TTITLE2=I Cross My Heart
TTITLE3=When Did You Stop Loving Me
TTITLE4=She Lays It All On The Line
TTITLE5=Overnight Male
TTITLE6=Last In Love
TTITLE7=Thoughts Of A Fool
TTITLE8=The King Of Broken Hearts
TTITLE9=Where The Sidewalk Ends
TTITLE10=Heartland (Main Title Sequence)
EXTD=YEAR: 1992 ID3G:   2
EXTT0=
EXTT1=
EXTT2=
EXTT3=
EXTT4=
EXTT5=
EXTT6=
EXTT7=
EXTT8=
EXTT9=
EXTT10=
PLAYORDER=
